<?xml version="1.0" encoding="utf-8"?><svg xmlns="http://www.w3.org/2000/svg"><symbol viewBox="0 0 24 24" id="chat"><path d="M8.82388455,18.5880577 L4,21 L4.65322944,16.4273939 C3.00629211,15.0013 2,13.0946628 2,11 C2,6.581722 6.4771525,3 12,3 C17.5228475,3 22,6.581722 22,11 C22,15.418278 17.5228475,19 12,19 C10.8897425,19 9.82174472,18.8552518 8.82388455,18.5880577 Z"/></symbol><symbol viewBox="0 0 24 24" id="cup"><path d="M6 2L18 2 18 11C18 14.3137085 15.3137085 17 12 17 8.6862915 17 6 14.3137085 6 11L6 2zM7 21L17 21"/><path d="M12,17 L12,21"/><path d="M6 5L6 11 5 11C3.34314575 11 2 9.65685425 2 8 2 6.34314575 3.34314575 5 5 5L6 5zM18 11L18 5 19 5C20.6568542 5 22 6.34314575 22 8 22 9.65685425 20.6568542 11 19 11L18 11z"/></symbol><symbol viewBox="0 0 24 24" id="feed"><circle cx="7.5" cy="7.5" r="2.5"/><path d="M22 13H2"/><path d="M18 6h-5m5 3h-5"/><path d="M5 2h14a3 3 0 0 1 3 3v17H2V5a3 3 0 0 1 3-3z"/></symbol><symbol viewBox="0 0 24 24" id="happy-face"><path d="M7.3010863,14.0011479 C8.0734404,15.7578367 9.98813711,17 11.9995889,17 C14.0024928,17 15.913479,15.7546194 16.6925307,14.0055328"/><line stroke-linecap="round" x1="9" y1="9" x2="9" y2="9"/><line stroke-linecap="round" x1="15" y1="9" x2="15" y2="9"/><circle cx="12" cy="12" r="10"/></symbol><symbol viewBox="0 0 24 24" id="sun"><circle cx="12" cy="12" r="4"/><path d="M12 5L12 3M12 21L12 19M5 12L2 12 5 12zM22 12L19 12 22 12zM16.9497475 7.05025253L19.0710678 4.92893219 16.9497475 7.05025253zM4.92893219 19.0710678L7.05025253 16.9497475 4.92893219 19.0710678zM16.9497475 16.9497475L19.0710678 19.0710678 16.9497475 16.9497475zM4.92893219 4.92893219L7.05025253 7.05025253 4.92893219 4.92893219z"/></symbol><symbol viewBox="0 0 24 24" id="send"><polygon points="21.368 12.001 3 21.609 3 14 11 12 3 9.794 3 2.394"/></symbol></svg>